HIERARCHY
ROOT Hips
{
     OFFSET 1.88212 96.90440 -13.34250
     CHANNELS 6 Xposition Yposition Zposition Zrotation Xrotation Yrotation
     JOINT Spine
     {
          OFFSET 0.00000 11.89050 0.00000
          CHANNELS 3 Zrotation Xrotation Yrotation
          JOINT Spine1
          {
               OFFSET -0.00000 25.65740 0.12766
               CHANNELS 3 Zrotation Xrotation Yrotation
               JOINT HEad
               {
                    OFFSET 0.00000 8.73416 0.01134
                    CHANNELS 3 Zrotation Xrotation Yrotation
                    End Site
                    {
                         OFFSET -0.29000 12.77420 2.51395
                    }
               }
               JOINT LeftShoulder1
               {
                    OFFSET 8.99000 -0.36225 -0.22000
                    CHANNELS 3 Zrotation Xrotation Yrotation
                    JOINT LeftArm
                    {
                         OFFSET 10.28270 -0.00338 0.32212
                         CHANNELS 3 Zrotation Xrotation Yrotation
                         JOINT LeftForeArm
                         {
                              OFFSET 32.76690 0.09914 -1.42434
                              CHANNELS 3 Zrotation Xrotation Yrotation
                              JOINT LeftHand
                              {
                                   OFFSET 27.56430 0.08536 1.02216
                                   CHANNELS 3 Zrotation Xrotation Yrotation
                                   End Site
                                   {
                                        OFFSET 16.74430 -0.60000 1.50291
                                   }
                              }
                         }
                    }
               }
               JOINT RightShoulder
               {
                    OFFSET -8.99000 -0.36225 -0.22000
                    CHANNELS 3 Zrotation Xrotation Yrotation
                    JOINT RightArm
                    {
                         OFFSET -10.28270 -0.00338 0.32212
                         CHANNELS 3 Zrotation Xrotation Yrotation
                         JOINT RightForeArm
                         {
                              OFFSET -32.89710 0.09914 -1.42434
                              CHANNELS 3 Zrotation Xrotation Yrotation
                              JOINT RightHand
                              {
                                   OFFSET -27.49210 0.08536 1.02216
                                   CHANNELS 3 Zrotation Xrotation Yrotation
                                   End Site
                                   {
                                        OFFSET -16.63120 -0.60000 1.50291
                                   }
                              }
                         }
                    }
               }
          }
     }
     JOINT LeftUpLeg
     {
          OFFSET 8.94580 -8.66707 0.10165
          CHANNELS 3 Zrotation Xrotation Yrotation
          JOINT LeftLeg
          {
               OFFSET 0.00000 -44.42270 1.37270
               CHANNELS 3 Zrotation Xrotation Yrotation
               JOINT LeftFoot
               {
                    OFFSET -0.25355 -42.09240 -1.46059
                    CHANNELS 3 Zrotation Xrotation Yrotation
                    JOINT LeftToes
                    {
                         OFFSET -0.04000 -4.41509 8.49910
                         CHANNELS 3 Zrotation Xrotation Yrotation
                         End Site
                         {
                              OFFSET 0.08000 -0.04745 9.77979
                         }
                    }
               }
          }
     }
     JOINT RightUpLeg
     {
          OFFSET -8.94580 -8.66707 0.10165
          CHANNELS 3 Zrotation Xrotation Yrotation
          JOINT RightLeg
          {
               OFFSET 0.00000 -44.42270 1.37270
               CHANNELS 3 Zrotation Xrotation Yrotation
               JOINT RightFoot
               {
                    OFFSET 0.25355 -42.09240 -1.46059
                    CHANNELS 3 Zrotation Xrotation Yrotation
                    JOINT RightToes
                    {
                         OFFSET 0.04000 -4.41509 8.49910
                         CHANNELS 3 Zrotation Xrotation Yrotation
                         End Site
                         {
                              OFFSET -0.08000 -0.13745 9.77979
                         }
                    }
               }
          }
     }
}
MOTION
Frames: 21
Frame Time: 0.01667
28.06003 91.38694 7.52740 11.98126 15.60837 116.57112 6.51638 23.01637 -4.79377 0.00326 -0.01250 -0.00272 -12.79341 12.50391 17.65790 -1.75024 7.75253 2.37742 -86.49937 -26.33082 -102.47342 15.38796 27.24900 -101.17470 33.29363 22.40557 33.49637 3.71856 7.87988 2.73076 82.42500 -2.30990 88.65781 -22.91577 27.80755 101.19964 -6.58149 -6.36670 11.27826 -14.10962 -12.42405 16.71779 28.60988 43.85285 7.76626 -12.94528 0.11989 0.04371 -6.15622 -5.21754 3.30668 -7.96332 -5.83776 -1.47601 3.92276 27.73363 -14.58072 95.05654 -0.01382 -0.02595 -73.57202 19.67272 -13.85693 
27.29312 91.34241 7.47751 14.37551 20.70407 113.54347 4.53036 28.08249 -3.77552 -0.00253 -0.00205 0.00074 -14.55149 8.78680 18.03768 -3.02722 7.14902 2.71063 -82.75652 -27.12107 -103.79588 20.45295 25.13254 -101.35737 33.75552 19.48784 38.95203 2.70939 7.30050 3.39583 80.98576 2.18932 89.23176 -20.15070 25.71445 99.67887 3.56741 8.61289 0.63892 -13.48794 -13.63140 21.59768 28.23333 50.21909 1.81107 -11.10269 0.01472 0.06121 -19.90570 -13.49502 -10.12282 -12.42909 -2.72009 1.62968 6.27219 27.98490 -15.81032 90.35218 0.00095 0.01562 -70.56221 19.64004 -13.72857 
26.55176 91.39207 7.43009 16.78143 25.07541 110.57591 2.84965 32.04684 -2.91123 -0.00792 0.00377 0.00088 -16.04527 4.37524 18.80723 -4.03338 7.08190 2.90386 -80.51051 -28.32977 -104.44463 23.08069 23.39351 -100.76973 33.76196 18.23930 42.20676 1.75077 7.26047 3.95804 79.67771 4.78742 89.45682 -18.41339 24.18009 99.05122 -0.20273 5.56861 5.54277 -11.37461 -15.90529 26.23545 30.09777 56.73635 -5.15993 -10.48918 -0.01426 0.02574 -14.07378 -14.66052 -2.91409 -16.81083 -0.41565 4.53888 7.95467 28.61312 -16.61318 86.57987 -0.00503 0.01979 -67.56208 19.46242 -13.49228 
25.89398 91.51733 7.38081 19.14480 28.83510 107.66813 1.44973 35.05516 -2.20664 -0.01127 0.00898 0.00067 -17.48866 0.73057 19.64848 -5.05389 7.40806 2.81715 -74.76336 -32.48190 -103.27275 21.82844 18.77621 -97.09731 33.60876 17.66795 44.05679 0.91861 7.62001 4.40290 78.43915 6.42289 89.40910 -17.41478 23.37991 98.70100 5.93087 12.30544 -0.86426 -7.87644 -19.00473 30.75691 34.87623 63.26105 -14.08993 -9.72838 -0.01701 0.01531 -25.26778 -27.30361 -22.18572 -20.99743 1.21165 7.22244 9.29113 29.52992 -17.15589 83.26311 -0.01021 0.01877 -64.50048 19.10817 -13.18237 
25.33714 91.68076 7.34841 21.40977 32.08566 104.84201 0.30919 37.21350 -1.68380 -0.01283 0.01252 -0.00033 -18.85036 -2.24136 20.56943 -6.09759 8.00428 2.62745 -65.96477 -38.14056 -98.77792 21.16697 15.39260 -89.97244 27.22014 29.64236 43.16732 0.23624 8.25999 4.63404 77.22073 7.64988 89.14060 -16.78112 23.04369 98.62085 2.72041 9.63307 2.61550 -3.12809 -22.66659 35.28294 39.52799 66.37962 -21.23171 -7.79400 -0.10939 -0.04437 -20.78846 -20.64251 -12.17707 -24.89074 2.27153 9.62239 10.46056 30.64865 -17.54506 80.04756 -0.01536 0.01750 -61.39291 18.49899 -12.78751 
24.84634 91.70024 7.40103 23.49010 34.83518 102.19065 -0.50626 38.56602 -1.39453 -0.01312 0.01570 -0.00046 -20.09621 -4.60674 21.56242 -7.05027 8.76482 2.60768 -59.39860 -41.44621 -94.02250 21.30584 16.59030 -82.09558 38.73087 16.15101 41.62589 -0.25206 9.06318 4.76873 75.97607 8.64295 88.60636 -16.31338 23.15102 98.51381 6.27618 12.62464 -0.92158 1.87905 -25.40346 39.43047 41.41926 69.74985 -25.06967 -4.88922 -0.00272 -0.09774 -26.70420 -34.51699 -28.87238 -28.47211 2.35625 10.53117 10.92528 32.13417 -17.09977 63.41591 -0.09895 0.17158 -44.97879 18.43265 -11.94388 
24.41939 91.57104 7.52995 25.31180 37.15076 99.77691 -1.01167 39.17764 -1.34578 -0.01336 0.01832 -0.00052 -21.21201 -6.40768 22.61632 -7.81009 9.59927 2.74437 -54.61283 -43.39314 -89.27076 20.41385 20.32444 -73.84688 29.87209 28.41588 36.18353 -0.54594 9.92771 4.79252 74.69613 9.54669 87.79047 -15.76063 23.48907 98.39350 3.75996 10.46866 1.34291 7.63171 -28.08584 43.34795 41.11250 70.44571 -25.71175 -3.21727 -0.11015 -0.09009 -23.07988 -26.41159 -21.09018 -31.56035 1.71981 10.00945 11.10135 34.38432 -15.55112 46.54654 -0.17433 0.08140 -28.72424 17.75452 -10.90602 
24.09921 91.45370 7.69825 26.84213 39.16542 97.58520 -1.32716 39.15026 -1.48420 -0.01332 0.02187 -0.00040 -22.22500 -7.68641 23.71881 -8.13712 10.44740 2.67220 -47.50035 -45.30250 -78.61034 17.83865 22.03994 -67.62505 44.24153 20.34017 35.18565 -0.67569 10.79569 4.75604 73.36628 10.45895 86.63905 -15.05179 24.03966 98.12492 5.71432 11.66319 -0.35505 14.74371 -30.91469 47.33141 40.43634 69.79293 -25.74727 -1.65625 -0.09688 -0.11220 -25.55250 -34.97605 -33.68838 -34.10585 0.89370 9.30343 11.44302 36.70841 -14.27719 29.44968 -0.20023 -0.02853 -12.58823 16.78292 -9.83566 
23.97318 91.49922 7.85146 28.08272 40.97477 95.58388 -1.56638 38.57066 -1.73979 -0.01829 0.02512 0.00101 -23.15094 -8.47038 24.85040 -8.09724 11.19826 2.35580 -39.73853 -45.34655 -64.59157 15.07352 22.83941 -63.42848 28.72704 21.45294 32.67709 9.78672 6.20746 2.14961 63.13111 14.43948 80.24645 -8.62660 25.64562 94.45657 0.80959 -2.87133 3.58575 23.34084 -33.50539 51.45284 38.11987 68.45762 -24.62901 -0.69003 -0.06803 -0.09111 -23.93575 -25.29667 -28.34059 -36.25814 0.02815 8.47515 11.79688 38.93563 -13.19023 12.26350 -0.17148 -0.12378 3.46903 15.65416 -8.78629 
24.12214 91.79589 7.90175 29.05823 42.60501 93.72710 -1.70489 37.46786 -2.08051 -0.01346 0.02367 0.00062 -24.05877 -8.74657 26.00452 0.97104 4.78213 -2.82272 -36.30437 -39.37806 -40.70164 12.99077 23.40915 -60.73345 52.88807 11.99241 25.71733 8.67982 7.43166 2.16826 62.76939 15.22461 79.21158 -4.37470 26.43634 92.02955 3.33055 9.80555 3.66498 33.08350 -35.35313 55.48616 33.32854 66.44440 -21.76592 0.97952 -0.06326 -0.17821 -19.82385 -29.31560 -35.37835 -38.19321 -0.69287 7.58499 11.13340 38.73230 -11.35405 13.75182 -0.11882 0.01259 1.38550 16.57776 -8.85236 
24.59865 92.39549 7.76329 29.78243 44.05973 91.98555 -1.65317 35.86989 -2.52760 -0.01126 0.02365 0.00113 -24.52957 -7.94745 25.90265 0.73788 5.77080 -3.33008 -33.32518 -36.02651 -28.44684 11.23778 23.83406 -58.13651 31.93753 17.35917 29.09177 8.08131 8.29986 2.25446 61.99254 16.29523 77.38897 -1.55388 26.75254 90.73071 0.12839 4.80064 5.12382 43.27726 -36.15424 58.96763 25.97578 63.51598 -17.15228 2.64316 -0.04497 -0.20791 -7.32798 -25.42978 -27.20232 -40.03588 -1.12351 6.67205 10.24610 39.09387 -9.33401 15.50993 -0.00150 0.00013 -0.62022 16.38870 -8.61036 
25.42893 93.30652 7.32223 30.25849 45.33797 90.32092 -1.42179 33.78619 -3.01046 -0.01448 0.02186 0.00307 -24.65457 -6.14780 24.73507 0.35996 6.47412 -3.63366 -32.34402 -32.99901 -20.82712 7.13929 24.36001 -50.97037 55.42525 13.89018 17.33168 15.07644 -0.05200 1.39931 56.76303 22.63291 67.15974 0.70858 26.77123 89.81848 1.17986 11.28723 5.28134 53.13385 -35.87062 61.38970 17.15778 59.29710 -11.69424 4.46815 -0.02417 -0.24687 2.83671 -10.38914 -27.93762 -41.87687 -1.19708 5.78412 8.97307 39.55956 -7.00552 17.56970 0.01210 0.00805 -2.42048 15.50279 -8.23698 
26.56824 94.49187 6.55324 30.48086 46.43330 88.72456 0.10049 30.41858 -4.58645 0.06648 -0.04119 -0.03673 -25.44814 -3.01796 23.51704 5.27615 -1.91488 -4.99825 -37.30356 -24.73486 -4.93135 3.58955 24.25445 -45.90101 32.81359 9.87200 23.85854 12.85707 2.36302 2.00067 56.47615 23.60919 65.60478 2.45327 26.60232 89.29299 -6.62352 -8.58396 15.89354 61.97304 -34.68643 62.28497 8.64505 53.57309 -6.88981 6.56727 0.00163 -0.29551 9.88221 -2.57791 -33.24593 -43.72114 -0.98519 4.94761 7.31639 37.60995 -5.06952 9.44199 -0.17959 0.09467 6.33578 16.91561 -7.95477 
27.95676 95.85260 5.54571 30.40123 47.33243 87.24236 2.41891 25.87000 -6.81830 0.05301 -0.04064 -0.03438 -26.55531 1.03046 22.14592 2.62638 1.11593 -4.62674 -39.06739 -26.09720 3.95156 0.23029 23.58305 -42.01295 42.47934 3.39721 13.23759 16.78325 -4.68880 1.33691 53.67579 31.94395 55.65599 4.16218 26.22912 88.81304 0.57501 3.08604 10.15920 69.30585 -32.83075 61.38059 1.75461 46.86210 -4.10274 9.51024 0.05573 -0.39651 17.95333 8.08426 -38.12692 -45.49156 -0.46846 4.15564 5.74944 36.02567 -3.06442 1.51354 -0.08543 0.00786 15.12915 17.09336 -7.44914 
29.53320 97.30369 4.38405 29.98326 48.02571 85.93701 4.37938 21.23613 -8.51431 -0.02539 0.02984 0.01284 -27.68295 4.65505 21.01427 0.47243 3.51579 -4.25642 -41.45852 -28.40798 13.11222 -2.69376 22.44946 -38.77074 29.66807 13.29911 20.08570 13.70893 -1.10898 2.24012 53.62964 32.35655 54.84771 5.76921 25.57459 88.92073 -4.45760 -2.51100 14.89754 74.80881 -30.49227 58.59090 -3.13967 41.13304 -4.13642 12.32009 0.16556 -0.34918 6.20562 19.69511 -35.18282 -47.09892 0.22393 3.38963 4.22191 32.38255 -0.87978 11.21626 -0.07946 -0.11767 6.71582 18.94032 -7.92906 
31.21750 98.77533 3.13496 29.23913 48.51760 84.84380 6.02294 17.00006 -9.56114 -0.02712 0.02756 0.01430 -28.71185 7.70073 19.89005 -1.50931 5.27249 -3.42230 -42.80216 -29.62064 18.93191 -7.92279 20.01941 -31.80467 46.21769 8.84110 -0.16498 11.13721 1.64418 3.20581 53.47657 32.81928 53.80859 7.21185 24.97254 89.31551 0.08278 4.79630 10.66470 78.39025 -27.87407 54.03089 -6.45241 39.72369 -5.71700 8.51704 -0.05417 0.05872 6.47997 24.43769 -30.69487 -48.48590 1.07999 2.64601 2.92059 27.80745 0.27461 6.46866 -0.13779 0.06934 12.85538 21.83345 -8.40546 
32.91547 100.17628 1.85400 28.22668 48.81882 83.97140 7.48598 13.18692 -10.12014 -0.02395 0.02432 0.01441 -29.49572 10.18117 18.71761 -3.12290 6.53589 -2.36407 -43.96264 -30.01464 22.55347 -13.49215 16.82796 -22.62921 30.86128 16.39407 13.56673 9.11231 3.76777 4.20241 53.15247 33.04726 52.78008 8.60750 24.27096 89.97495 -2.67962 1.91569 13.68256 80.09104 -25.10231 47.95816 -11.25916 41.52034 -3.44475 5.60033 -0.01995 -0.05056 -16.84536 16.92805 -11.39610 -49.60156 2.09975 1.93475 1.94870 22.52830 1.32584 12.35732 -0.07474 -0.10699 8.30922 24.98320 -8.91175 
34.54613 101.43345 0.60164 27.04077 48.95057 83.29492 8.85145 9.82715 -10.30562 -0.02052 0.02224 0.01552 -29.99390 12.15641 17.50551 -4.16697 7.47551 -1.18980 -45.39293 -29.76992 24.65956 -17.89026 13.61615 -12.50083 39.99616 11.95518 -5.72353 7.72974 5.48693 5.22380 52.66986 32.98408 51.83314 9.83872 23.68008 90.63249 -0.12439 6.31204 10.61170 80.22437 -22.29478 40.76195 -17.78109 43.95711 2.73244 2.68596 -0.00252 -0.10462 -23.72591 3.18721 -3.64445 -50.42653 3.28958 1.28121 1.20307 16.97363 1.69995 8.10975 -0.12411 0.09143 13.90428 28.44129 -9.67847 
36.07423 102.49792 -0.53523 25.81493 48.95355 82.75786 10.12988 6.95314 -10.19785 -0.01746 0.02129 0.01721 -30.18697 13.70234 16.27130 -4.94041 8.23584 0.21634 -47.04225 -28.99440 25.63651 -19.57474 11.16583 -6.95045 34.39173 19.48694 15.74076 6.85959 6.94785 6.25167 52.16576 32.57011 51.05582 10.93295 23.10452 91.25410 -1.89944 4.75055 12.46867 79.09319 -19.49512 32.77431 -26.16850 45.47130 12.29981 0.70681 0.04106 -0.08737 -33.43452 -11.03413 -0.55294 -50.91734 4.45874 0.71994 -0.16849 15.03335 2.53308 12.18334 0.00958 0.04972 10.93423 28.08263 -9.03434 
37.51931 103.32132 -1.46738 24.69310 48.86784 82.30233 11.30251 4.58426 -9.87658 -0.01523 0.02053 0.01860 -30.08663 14.90020 15.04810 -5.44363 8.89115 1.74249 -48.96239 -27.92619 25.93229 -19.87935 9.60872 -4.10027 44.98084 18.33612 4.39188 6.38913 8.24210 7.22931 51.76905 31.90724 50.45341 11.80573 22.66924 91.71858 -0.50808 7.20459 10.13425 76.97428 -16.68174 24.26581 -35.45697 44.95080 23.86308 -0.76166 0.06124 -0.06166 -26.75410 -13.53857 -4.08496 -51.05563 5.31683 0.27878 -1.71977 15.06585 3.52989 16.21743 0.01966 0.08436 7.65648 26.00110 -8.17569 
38.91050 103.87584 -2.16026 23.79830 48.72003 81.88291 12.33576 2.71146 -9.40821 -0.01398 0.02019 0.01946 -29.71994 15.84106 13.87549 -5.80216 9.50932 3.49759 -50.96282 -26.58033 26.02385 -19.34569 8.81808 -2.69727 38.32351 17.60785 9.36771 6.15169 9.43255 8.11870 51.55288 31.04074 50.05601 12.48595 22.33161 92.09139 -1.47635 6.35725 11.13843 74.08206 -13.81815 15.48429 -44.03631 42.08892 35.58309 -1.61994 0.07117 -0.02197 -26.63113 -18.82674 -5.84364 -50.88243 5.66607 -0.01701 -3.11387 16.36875 4.71334 19.83308 0.01806 0.09485 4.29752 23.05170 -7.43206 
